<svg width="72" height="72" viewBox="0 0 72 72" fill="none" xmlns="http://www.w3.org/2000/svg">
<circle cx="36" cy="35.8785" r="35.5733" fill="url(#paint0_linear_513_11)"/>
<path d="M42.5227 17.5824C46.8508 18.877 47.8879 20.046 49.0444 22.3528C43.7455 20.9689 40.8074 19.9883 35.6624 17.6429C38.1084 17.3901 39.5507 17.3184 42.5227 17.5824Z" fill="#48EDC6"/>
<path d="M49.0225 51.8231C44.3472 55.482 42.162 71.3249 42.162 71.3249C42.162 71.3249 29.2984 73.9928 15.9267 65.0042C12.3792 61.742 13.9257 64.496 6.84277 56.6509C6.84277 56.6509 9.63782 51.5689 10.146 43.9461C10.6542 36.3233 11.4032 29.8756 11.9247 28.4463C12.7822 26.0959 13.7052 24.2627 18.5311 20.5694C22.1909 17.7685 29.9654 16.9274 33.5227 17.0121C35.2696 17.0537 37.5883 18.2317 39.621 19.0448C41.6538 19.8579 45.5499 21.247 47.2439 21.8399C51.6482 22.2634 61.0158 24.1775 63.2518 28.4463C65.4879 32.7151 64.1835 35.4763 63.2518 36.3233C60.4568 39.9653 53.6979 48.1641 49.0225 51.8231Z" fill="url(#paint1_linear_513_11)" fill-opacity="0.98"/>
<circle cx="30.9181" cy="27.3664" r="6.79704" fill="black"/>
<path d="M30.0923 25.0157C31.1441 22.2087 32.2275 21.6547 34.666 21.7124C36.7221 22.9969 37.2652 24.1231 37.7151 26.4767C37.8316 29.2999 37.3337 30.4062 36 32.0033C32.8119 33.3759 31.6066 32.7756 30.4099 29.4623L33.7131 27.239L30.0923 25.0157Z" fill="url(#paint2_linear_513_11)"/>
<defs>
<linearGradient id="paint0_linear_513_11" x1="36" y1="0.305176" x2="36" y2="71.4518" gradientUnits="userSpaceOnUse">
<stop stop-color="#4FD1C5"/>
<stop offset="1" stop-color="#9B87F5"/>
</linearGradient>
<linearGradient id="paint1_linear_513_11" x1="35.6646" y1="71.6951" x2="35.6646" y2="17.0063" gradientUnits="userSpaceOnUse">
<stop stop-color="#48EDC6"/>
<stop offset="0.947115" stop-color="#948FF0"/>
</linearGradient>
<linearGradient id="paint2_linear_513_11" x1="33.9119" y1="21.7085" x2="33.9119" y2="32.6911" gradientUnits="userSpaceOnUse">
<stop stop-color="#286B65"/>
<stop offset="1" stop-color="#4FD1C5"/>
</linearGradient>
</defs>
</svg>
