<svg width="40" height="41" viewBox="0 0 40 41" fill="none" xmlns="http://www.w3.org/2000/svg">
<g clip-path="url(#clip0_3183_1500)">
<mask id="mask0_3183_1500" style="mask-type:luminance" maskUnits="userSpaceOnUse" x="0" y="0" width="40" height="41">
<path d="M39.9703 0.25H0V40.25H39.9703V0.25Z" fill="white"/>
</mask>
<g mask="url(#mask0_3183_1500)">
<path d="M39.9701 20.0926C40.02 31.1011 31.1124 40.0649 20.076 40.1147C9.03803 40.1645 0.0501753 31.2808 0.000209185 20.2723C-0.0497569 9.26383 8.85783 0.300029 19.8958 0.250196C30.9322 0.201874 39.9201 9.08414 39.9701 20.0926Z" fill="white"/>
<path d="M30.1208 13.0501C28.6702 12.6318 27.1682 12.0368 25.645 11.4373C25.5572 11.0568 25.2196 10.5826 24.5351 10.0012C23.5404 9.14045 21.672 9.16311 20.0579 9.54366C18.2757 9.12538 16.5149 8.97584 14.8251 9.38053C1.00717 13.1784 8.84126 22.4397 3.76742 31.7523C4.48966 33.279 12.4554 40.614 23.5298 39.7996C23.5298 39.7996 19.6794 30.5715 28.3689 26.1409C35.4172 22.5484 40.5092 15.8769 30.1192 13.0485L30.1208 13.0501Z" fill="#6973B8"/>
<path d="M21.0148 15.2702C21.0148 17.3994 19.2842 19.1239 17.1508 19.1239C15.0174 19.1239 13.2867 17.3994 13.2867 15.2702C13.2867 13.1409 15.0174 11.418 17.1508 11.418C19.2842 11.418 21.0148 13.1424 21.0148 15.2702Z" fill="white"/>
<path d="M34.9568 20.8164C31.8271 23.0166 28.2643 24.6852 23.2148 24.6852C20.8512 24.6852 20.3712 22.18 18.8086 23.4077C18.0016 24.0419 15.1581 25.4599 12.9005 25.3527C10.6233 25.244 6.98786 23.9241 5.96582 19.1206C5.56155 23.9241 5.35563 27.4638 3.54626 31.5198C7.98785 37.9838 15.7322 41.1997 23.5297 39.8011C22.6924 33.9677 27.804 28.2551 30.6839 25.3315C31.774 24.2247 33.8636 22.4171 34.9568 20.8164Z" fill="#6973B8"/>
<path d="M18.7795 18.3875C20.0318 18.3875 21.047 16.9801 21.047 15.244C21.047 13.508 20.0318 12.1006 18.7795 12.1006C17.5272 12.1006 16.512 13.508 16.512 15.244C16.512 16.9801 17.5272 18.3875 18.7795 18.3875Z" fill="#0D1217"/>
<path d="M19.6865 9.53627C20.9236 10.026 25.4412 11.516 27.3958 12.1008C25.4002 8.82174 22.3758 9.01096 19.6865 9.53627Z" fill="#6874B8"/>
<path d="M18.7795 15.2435L16.0585 13.4473V17.0398L18.7795 15.2435Z" fill="white"/>
</g>
</g>
<defs>
<clipPath id="clip0_3183_1500">
<rect width="40" height="40" fill="white" transform="translate(0 0.25)"/>
</clipPath>
</defs>
</svg>
