<svg width="66" height="74" viewBox="0 0 66 74" fill="none" xmlns="http://www.w3.org/2000/svg">
<g clip-path="url(#clip0_137_4154)">
<path fill-rule="evenodd" clip-rule="evenodd" d="M39.6593 26.7389C42.0264 25.6254 45.0383 23.9863 48.0538 21.7406C48.6896 22.9862 48.7593 24.0732 48.4317 24.9509C48.1996 25.5695 47.7621 26.1075 47.1869 26.5355C46.564 26.9981 45.786 27.3348 44.9261 27.5169C43.2944 27.8636 41.3893 27.6612 39.6593 26.7389ZM40.0697 38.1479L43.2031 39.8553C36.8052 43.2381 35.066 49.5196 32.9999 55.6377C30.9341 49.5196 29.1945 43.2381 22.7969 39.8553L25.9304 38.1479C26.2335 38.0398 26.4926 37.844 26.6705 37.5885C26.8484 37.333 26.936 37.0309 26.9208 36.7256C26.6337 30.9958 28.2737 28.462 30.4858 26.8711C31.2792 26.3012 32.1453 26.015 32.9999 26.015C33.8544 26.015 34.7206 26.3012 35.5142 26.8711C37.7263 28.462 39.3663 30.9958 39.0792 36.7256C39.064 37.0309 39.1516 37.333 39.3295 37.5885C39.5075 37.844 39.7665 38.0398 40.0697 38.1479ZM32.9999 0.734863C36.6218 0.8266 40.2528 1.48993 43.404 2.78032C45.5861 3.67506 47.6223 4.85693 49.466 6.27021C50.2986 6.90823 50.9842 7.52459 51.7395 8.23415C53.7764 8.30058 56.7532 6.16582 58.1353 4.1683C55.7568 11.5243 44.9034 20.211 37.3894 23.535C37.3863 23.5337 37.3843 23.532 37.382 23.5306C36.0335 22.5592 34.5168 22.0735 32.9999 22.0735C31.483 22.0735 29.9665 22.5592 28.6181 23.5306C28.6157 23.5318 28.6137 23.534 28.6106 23.535C21.0964 20.211 10.2432 11.5243 7.86475 4.1683C9.24651 6.16582 12.2234 8.30058 14.2603 8.23415C15.0158 7.52484 15.7014 6.90823 16.5337 6.27021C18.3775 4.85693 20.4136 3.67506 22.5958 2.78032C25.7472 1.48993 29.3782 0.8266 32.9999 0.734863ZM26.3405 26.7389C23.9736 25.6254 20.9615 23.9863 17.9462 21.7406C17.3104 22.9862 17.2407 24.0732 17.5681 24.9509C17.8005 25.5695 18.2379 26.1075 18.8129 26.5355C19.436 26.9981 20.214 27.3348 21.0739 27.5169C22.7056 27.8636 24.6105 27.6612 26.3405 26.7389Z" fill="url(#paint0_linear_137_4154)"/>
<path fill-rule="evenodd" clip-rule="evenodd" d="M51.3563 18.9889C53.0164 17.4085 54.4792 15.6591 55.6553 14.0981L56.2527 15.1588C58.1759 18.7886 59.1752 22.4038 59.1752 26.4724L59.171 32.9285L59.2071 36.2753C59.3464 44.4917 61.2309 52.8047 65.4998 60.4123L56.5682 53.6179L50.2485 63.2926L43.6092 57.3964L32.9998 73.6387L22.3903 57.3966L15.7513 63.2929L9.43158 53.6182L0.499756 60.4125C4.7686 52.8049 6.65309 44.4919 6.79263 36.2755L6.82874 32.9287L6.82462 26.4726C6.82462 22.4038 7.82361 18.7886 9.7473 15.1591L10.3444 14.0984C11.5206 15.6594 12.9831 17.4085 14.6434 18.9891L14.125 20.0051C13.1178 21.9783 12.7842 24.1846 13.5689 26.2828C14.0747 27.6343 14.9979 28.7933 16.188 29.678C17.3435 30.5373 18.7111 31.1164 20.1429 31.4206C21.0756 31.6186 22.0258 31.7001 22.9699 31.6724C22.7496 32.8504 22.6534 34.0722 22.6472 35.3171L14.222 39.9078L20.7235 43.3458C21.2432 43.6207 21.7379 43.9356 22.2025 44.2873C27.5627 48.8274 30.7854 62.2587 33 68.8192C35.2149 62.2587 38.4373 48.8274 43.7978 44.2873C44.2624 43.9355 44.7571 43.6206 45.2768 43.3458L51.7783 39.9078L43.3528 35.3171C43.3466 34.0722 43.2504 32.8504 43.0301 31.6724C43.9742 31.7001 44.9244 31.6186 45.8571 31.4206C47.2889 31.1164 48.6568 30.5373 49.8121 29.678C51.0019 28.7933 51.9253 27.6343 52.4309 26.2828C53.2158 24.1846 52.882 21.9785 51.875 20.0051L51.3566 18.9891L51.3563 18.9889Z" fill="url(#paint1_linear_137_4154)"/>
</g>
<defs>
<linearGradient id="paint0_linear_137_4154" x1="7.86475" y1="28.1863" x2="58.1353" y2="28.1863" gradientUnits="userSpaceOnUse">
<stop stop-color="#9B87F5"/>
<stop offset="1" stop-color="#4FD1C5"/>
</linearGradient>
<linearGradient id="paint1_linear_137_4154" x1="0.499756" y1="43.8684" x2="65.4998" y2="43.8684" gradientUnits="userSpaceOnUse">
<stop stop-color="#9B87F5"/>
<stop offset="1" stop-color="#4FD1C5"/>
</linearGradient>
<clipPath id="clip0_137_4154">
<rect width="65" height="73" fill="white" transform="translate(0.5 0.734863)"/>
</clipPath>
</defs>
</svg>
