<svg width="36" height="41" viewBox="0 0 36 41" fill="none" xmlns="http://www.w3.org/2000/svg">
<g clip-path="url(#clip0_3135_903)">
<mask id="mask0_3135_903" style="mask-type:luminance" maskUnits="userSpaceOnUse" x="0" y="0" width="36" height="41">
<path d="M35.7273 0.646484H0.27272V40.1059H35.7273V0.646484Z" fill="white"/>
</mask>
<g mask="url(#mask0_3135_903)">
<path fill-rule="evenodd" clip-rule="evenodd" d="M21.6323 14.7027C22.9235 14.1008 24.5663 13.2148 26.2112 12.0009C26.558 12.6742 26.596 13.2618 26.4173 13.7362C26.2907 14.0706 26.052 14.3614 25.7383 14.5928C25.3985 14.8428 24.9742 15.0248 24.5051 15.1233C23.6151 15.3107 22.576 15.2013 21.6323 14.7027ZM21.8562 20.8697L23.5653 21.7927C20.0756 23.6212 19.1269 27.0166 17.9999 30.3237C16.8731 27.0166 15.9243 23.6212 12.4347 21.7927L14.1438 20.8697C14.3092 20.8113 14.4505 20.7055 14.5475 20.5674C14.6446 20.4293 14.6924 20.266 14.6841 20.1009C14.5275 17.0037 15.422 15.6341 16.6286 14.7742C17.0614 14.4661 17.5338 14.3114 17.9999 14.3114C18.466 14.3114 18.9385 14.4661 19.3714 14.7742C20.578 15.6341 21.4725 17.0037 21.3159 20.1009C21.3076 20.266 21.3554 20.4293 21.4524 20.5674C21.5495 20.7055 21.6908 20.8113 21.8562 20.8697ZM17.9999 0.646484C19.9755 0.696072 21.9561 1.05463 23.6749 1.75214C24.8651 2.23578 25.9758 2.87463 26.9814 3.63856C27.4356 3.98344 27.8096 4.31661 28.2215 4.70015C29.3326 4.73606 30.9563 3.58214 31.7102 2.5024C30.4128 6.47861 24.4928 11.1741 20.3942 12.9709C20.3925 12.9702 20.3914 12.9693 20.3902 12.9685C19.6546 12.4434 18.8273 12.1809 17.9999 12.1809C17.1725 12.1809 16.3454 12.4434 15.6099 12.9685C15.6086 12.9692 15.6075 12.9703 15.6058 12.9709C11.5071 11.1741 5.58719 6.47861 4.28986 2.5024C5.04354 3.58214 6.6673 4.73606 7.77834 4.70015C8.19043 4.31674 8.56439 3.98344 9.01837 3.63856C10.0241 2.87463 11.1347 2.23578 12.325 1.75214C14.0439 1.05463 16.0245 0.696072 17.9999 0.646484ZM14.3675 14.7027C13.0765 14.1008 11.4335 13.2148 9.78883 12.0009C9.44203 12.6742 9.40401 13.2618 9.58259 13.7362C9.70936 14.0706 9.94794 14.3614 10.2616 14.5928C10.6014 14.8428 11.0258 15.0248 11.4948 15.1233C12.3849 15.3107 13.4239 15.2013 14.3675 14.7027Z" fill="white"/>
<path fill-rule="evenodd" clip-rule="evenodd" d="M28.0125 10.5128C28.918 9.65855 29.7159 8.71292 30.3574 7.86914L30.6833 8.44249C31.7323 10.4045 32.2774 12.3587 32.2774 14.558L32.2751 18.0477L32.2948 19.8568C32.3708 24.2981 33.3987 28.7916 35.7272 32.9038L30.8554 29.2312L27.4083 34.4608L23.7868 31.2736L17.9999 40.0532L12.2129 31.2737L8.59161 34.4609L5.14449 29.2314L0.272583 32.9039C2.60104 28.7917 3.62895 24.2982 3.70506 19.8569L3.72476 18.0478L3.72251 14.5581C3.72251 12.3587 4.26741 10.4045 5.3167 8.44265L5.64239 7.8693C6.28395 8.71309 7.08168 9.65855 7.9873 10.5129L7.70453 11.0621C7.15515 12.1287 6.97319 13.3213 7.40121 14.4555C7.6771 15.186 8.18066 15.8125 8.82981 16.2907C9.46008 16.7552 10.206 17.0682 10.987 17.2327C11.4958 17.3397 12.0141 17.3837 12.529 17.3688C12.4089 18.0055 12.3564 18.666 12.353 19.3389L7.75744 21.8203L11.3037 23.6787C11.5872 23.8273 11.857 23.9975 12.1104 24.1876C15.0342 26.6417 16.792 33.9019 18 37.4481C19.2081 33.9019 20.9658 26.6417 23.8897 24.1876C24.1431 23.9975 24.413 23.8272 24.6964 23.6787L28.2427 21.8203L23.647 19.3389C23.6436 18.666 23.5911 18.0055 23.471 17.3688C23.9859 17.3837 24.5042 17.3397 25.013 17.2327C25.7939 17.0682 26.5401 16.7552 27.1702 16.2907C27.8192 15.8125 28.3229 15.186 28.5987 14.4555C29.0268 13.3213 28.8447 12.1288 28.2954 11.0621L28.0125 10.5128Z" fill="white"/>
</g>
</g>
<defs>
<clipPath id="clip0_3135_903">
<rect width="36" height="40" fill="white" transform="translate(0 0.25)"/>
</clipPath>
</defs>
</svg>
