<svg width="40" height="41" viewBox="0 0 40 41" fill="none" xmlns="http://www.w3.org/2000/svg">
<g clip-path="url(#clip0_3135_922)">
<path fill-rule="evenodd" clip-rule="evenodd" d="M14.8751 2.89943C12.1351 4.12298 9.89337 5.15836 9.89383 5.20047C9.89509 5.30916 16.4699 8.1636 16.7033 8.15663C16.8094 8.15354 17.5795 7.84971 18.4145 7.48143L19.9329 6.81194L21.5911 7.54263L23.2493 8.27343L25.9648 7.22743C30.0566 5.65124 30.4815 5.47852 30.4149 5.42049C30.3265 5.3435 28.8589 4.66762 24.8771 2.87059C22.9527 2.00207 21.085 1.15051 20.7264 0.978206C20.3679 0.805891 20.0256 0.667277 19.9658 0.66996C19.9061 0.672644 17.6151 1.67591 14.8751 2.89943ZM2.85746 8.23417L0.00514589 9.49714V15.0402C0.00514589 18.0889 0.0425995 20.5831 0.0885411 20.5831C0.134323 20.5831 1.53767 20.0617 3.20701 19.4243L6.24217 18.2654V12.4227L7.72537 13.1154C8.86829 13.6487 10.0119 14.181 11.1562 14.7121L13.1038 15.6161L13.9704 15.2801C14.5139 15.0691 15.0563 14.856 15.5977 14.6409C16.016 14.4739 17.0428 14.0774 17.8795 13.7597C18.7161 13.4418 19.4906 13.1221 19.6005 13.0493C19.7463 12.9525 17.9674 12.1098 13.0209 9.93229C9.29223 8.29086 6.12189 6.95309 5.97566 6.95954C5.82943 6.96594 4.42626 7.53943 2.85746 8.23417ZM30.929 8.58886C28.9864 9.34063 27.3956 9.98577 27.3938 10.0225C27.3921 10.0593 28.4509 10.599 29.7468 11.2217C31.0426 11.8445 32.1029 12.3873 32.1029 12.4282C32.1029 12.469 30.9562 12.9453 29.5549 13.4868C28.1533 14.0282 24.6109 15.3996 21.6826 16.5344L11.8707 20.3363C9.40252 21.2929 7.17771 22.1549 6.92674 22.2524C1.88536 24.2088 0.499682 24.7517 0.30939 24.8448C0.118037 24.9386 0.0746949 25.4837 0.0406366 28.2193L0 31.4819L2.55066 32.5961L5.10127 33.7101L8.63811 32.3418C10.5834 31.5893 12.1749 30.9342 12.1749 30.8859C12.1749 30.8378 11.8154 30.637 11.3763 30.4395C10.9369 30.2421 10.03 29.805 9.36063 29.4679C8.69137 29.1309 8.024 28.8217 7.87743 28.7807C7.73097 28.7398 7.61326 28.6683 7.61566 28.6217C7.61811 28.5751 9.17554 27.9409 11.0765 27.2123C14.7686 25.7971 17.5941 24.7065 23.6601 22.3549C26.3726 21.3036 29.0854 20.2529 31.7986 19.2029C34.1831 18.2802 36.9555 17.2027 37.9596 16.8083L39.785 16.0913L39.8257 12.7914L39.8665 9.49166L37.2794 8.35337C35.8565 7.72743 34.6403 7.21674 34.5765 7.21863C34.5128 7.22034 32.8714 7.83686 30.929 8.58886ZM39.0919 20.4934C38.7107 20.6531 37.9577 20.9519 37.4186 21.1575C36.8795 21.3631 35.8565 21.7589 35.1453 22.037L33.8523 22.5426L33.8227 25.4395C33.8065 27.0329 33.7381 28.3294 33.6707 28.321C33.5176 28.3015 31.0942 27.2361 28.6581 26.117C26.8998 25.3095 26.7894 25.2774 26.3762 25.4528C26.1374 25.5543 24.7098 26.1031 23.2038 26.6727C21.6977 27.2422 20.4165 27.7454 20.3562 27.791C20.2961 27.8365 23.3271 29.2447 27.092 30.9206L33.937 33.9677L36.8611 32.671C38.4692 31.9579 39.8366 31.3075 39.8996 31.2257C40.0413 31.0418 40.0292 20.1779 39.8873 20.1926C39.8311 20.1985 39.4731 20.3338 39.0919 20.4934ZM22.8995 33.2448C22.3923 33.4317 21.8853 33.6189 21.3783 33.8064C19.8475 34.3741 20.1475 34.393 18.3263 33.6158C17.1133 33.0981 16.5904 32.9384 16.3634 33.0159C16.1932 33.0741 14.7281 33.6391 13.1074 34.2715C11.4869 34.904 10.1047 35.4214 10.0359 35.4214C9.35594 35.4214 10.4863 36.0004 14.8483 37.8866L19.9639 40.0985L22.1162 39.1876C23.3001 38.6866 25.6878 37.6833 27.4224 36.9581C29.1569 36.2327 30.5546 35.6205 30.5285 35.5974C30.5021 35.5744 29.0487 34.9346 27.2986 34.1757L24.1165 32.796L22.8995 33.2448Z" fill="white"/>
</g>
<defs>
<clipPath id="clip0_3135_922">
<rect width="40" height="40" fill="white" transform="translate(0 0.25)"/>
</clipPath>
</defs>
</svg>
