<svg width="70" height="70" viewBox="0 0 70 70" fill="none" xmlns="http://www.w3.org/2000/svg">
<path fillRule="evenodd" clipRule="evenodd" d="M26.0314 4.6365C21.2364 6.77772 17.3134 8.58963 17.3142 8.66333C17.3164 8.85353 28.8224 13.8488 29.2308 13.8366C29.4165 13.8312 30.7642 13.2995 32.2254 12.655L34.8825 11.4834L37.7844 12.7621L40.6862 14.041L45.4384 12.2105C52.599 9.45217 53.3427 9.14991 53.2261 9.04836C53.0714 8.91362 50.5031 7.73083 43.5349 4.58604C40.1673 3.06613 36.8987 1.5759 36.2712 1.27436C35.6438 0.972809 35.0448 0.730235 34.9402 0.73493C34.8356 0.739626 30.8265 2.49535 26.0314 4.6365ZM5.00055 13.9723L0.00900531 16.1825V25.8828C0.00900531 31.218 0.0745491 35.583 0.154947 35.583C0.235066 35.583 2.69092 34.6704 5.61226 33.555L10.9238 31.527V21.3023L13.5194 22.5145C15.5195 23.4478 17.5208 24.3792 19.5233 25.3086L22.9316 26.8906L24.4482 26.3027C25.3994 25.9334 26.3486 25.5605 27.2959 25.184C28.028 24.8918 29.8249 24.198 31.2891 23.6419C32.7532 23.0856 34.1086 22.5262 34.3008 22.3987C34.5561 22.2294 31.443 20.7546 22.7865 16.944C16.2614 14.0715 10.7133 11.7304 10.4574 11.7417C10.2015 11.7529 7.74596 12.7565 5.00055 13.9723ZM54.1257 14.593C50.7262 15.9086 47.9423 17.0376 47.9391 17.1019C47.9362 17.1662 49.789 18.1107 52.0569 19.2004C54.3246 20.2903 56.18 21.2403 56.18 21.3118C56.18 21.3832 54.1733 22.2167 51.721 23.1644C49.2683 24.1118 43.069 26.5118 37.9445 28.4977L20.7737 35.1511C16.4544 36.825 12.561 38.3336 12.1218 38.5042C3.29938 41.9279 0.874443 42.8779 0.541432 43.0409C0.206565 43.2051 0.130716 44.1589 0.0711141 48.9462L0 54.6559L4.46366 56.6056L8.92723 58.5552L15.1167 56.1606C18.5209 54.8438 21.3061 53.6973 21.3061 53.6128C21.3061 53.5286 20.677 53.1772 19.9085 52.8317C19.1396 52.4861 17.5525 51.7212 16.3811 51.1314C15.2099 50.5416 14.042 50.0005 13.7855 49.9288C13.5292 49.8572 13.3232 49.732 13.3274 49.6504C13.3317 49.5689 16.0572 48.4591 19.3838 47.184C25.845 44.7075 30.7897 42.7988 41.4052 38.6836C46.1521 36.8438 50.8995 35.0051 55.6476 33.1676C59.8205 31.5529 64.6722 29.6672 66.4293 28.977L69.6238 27.7222L69.6949 21.9475L69.7663 16.1729L65.239 14.1809C62.7489 13.0855 60.6205 12.1918 60.5089 12.1951C60.3974 12.1981 57.525 13.277 54.1257 14.593ZM68.4109 35.426C67.7438 35.7054 66.426 36.2284 65.4826 36.5882C64.5392 36.948 62.7489 37.6405 61.5043 38.1273L59.2415 39.012L59.1898 44.0817C59.1613 46.87 59.0416 49.139 58.9237 49.1242C58.6558 49.0901 54.4148 47.2256 50.1517 45.2673C47.0747 43.8541 46.8814 43.7979 46.1584 44.1049C45.7405 44.2825 43.2421 45.243 40.6066 46.2398C37.971 47.2364 35.7288 48.1169 35.6233 48.1967C35.5181 48.2763 40.8225 50.7408 47.411 53.6736L59.3898 59.006L64.507 56.7368C67.3211 55.4889 69.7141 54.3506 69.8243 54.2075C70.0723 53.8856 70.0511 34.8739 69.8027 34.8996C69.7045 34.9098 69.078 35.1467 68.4109 35.426ZM40.0742 57.7409C39.1866 58.068 38.2992 58.3956 37.412 58.7237C34.7331 59.7172 35.2581 59.7502 32.071 58.3901C29.9482 57.4842 29.0332 57.2047 28.636 57.3404C28.3381 57.4421 25.7742 58.431 22.938 59.5377C20.102 60.6445 17.6832 61.55 17.5629 61.55C16.3729 61.55 18.3511 62.5632 25.9846 65.8641L34.9368 69.7349L38.7034 68.1408C40.7751 67.264 44.9536 65.5083 47.9892 64.2392C51.0245 62.9698 53.4705 61.8984 53.4248 61.858C53.3786 61.8177 50.8352 60.6981 47.7725 59.37L42.2039 56.9555L40.0742 57.7409Z" fill="url(#paint0_linear_168_26)"/>
<defs>
<linearGradient id="paint0_linear_168_26" x1="0" y1="35.2349" x2="70" y2="35.2349" gradientUnits="userSpaceOnUse">
<stop stopColor="#9B87F5"/>
<stop offset="1" stopColor="#4FD1C5"/>
</linearGradient>
</defs>
</svg>
