<svg width="28" height="41" viewBox="0 0 28 41" fill="none" xmlns="http://www.w3.org/2000/svg">
<g clip-path="url(#clip0_3135_912)">
<path d="M25.3207 19.7132C23.0432 16.7798 19.8705 15.3082 16.1462 15.2884C14.7373 15.2802 13.6176 14.8818 12.6068 13.9584C12.0568 13.453 12.0552 13.2703 12.7191 12.8851C15.0759 11.5221 17.2692 9.96163 18.6301 7.51879C19.6974 5.588 20.5901 3.56629 21.2975 1.47762C21.5865 0.634814 21.5254 0.547575 20.6203 0.550867C18.5905 0.559098 17.1057 1.79861 15.6986 2.9657C13.2328 5.01182 11.4044 7.63405 9.76276 10.3732C9.28872 11.16 8.67766 11.6242 7.76104 11.7575C5.65357 12.0637 3.96237 13.0629 2.75505 14.8423C2.04817 15.8909 1.45526 17.0053 0.386676 17.7921C-0.0625569 18.1214 -0.0212669 18.8539 0.262806 19.3066C0.943261 20.3914 1.93256 21.1074 3.24722 21.2967C4.56189 21.486 5.16968 22.0539 5.4389 23.3428C5.75106 24.8374 6.03675 26.3371 6.88403 27.6523C7.4984 29.0284 8.65452 29.8531 9.94443 30.4655C11.0774 31.0038 12.293 31.3659 13.4656 31.8235C15.5615 32.6466 17.4294 33.7676 18.6896 35.71C18.939 36.0984 19.1438 36.5149 19.3684 36.9182C19.4262 36.7494 19.4331 36.5674 19.3882 36.3947C18.8448 33.761 17.0463 31.9996 14.9966 30.5116C13.7018 29.5733 12.2963 28.7799 11.0741 27.7297C9.32838 25.9552 8.3523 23.8087 7.93608 21.3856C8.48078 22.635 9.31784 23.7362 10.3771 24.5971C10.5423 25.091 10.98 25.3576 11.3499 25.6654C12.9255 26.9823 14.7539 27.8729 16.6036 28.6992C18.6169 29.598 19.854 31.04 20.2371 33.2161C20.1975 30.8309 19.707 28.5774 18.4534 26.528C17.5037 24.7091 15.8291 23.6391 14.26 22.4424C15.7894 22.8885 16.9191 23.9798 18.1611 24.8852C18.0967 25.1831 18.3609 25.3082 18.4914 25.4992C19.3568 26.7354 20.143 28.0128 20.6385 29.4498C20.7887 29.8976 20.9357 30.347 21.1439 30.9758C21.309 30.4688 21.4213 30.1527 21.5386 29.8235C21.8689 30.6466 21.7252 31.4581 21.7681 32.3667C22.2636 31.2145 22.4899 28.0687 22.1992 27.0334C22.1348 26.8046 22.1629 26.5395 21.9366 26.3749C22.0093 25.1634 21.3486 24.1922 20.9324 23.114C22.4024 24.314 23.2728 25.9124 23.9202 27.6556C23.9059 27.8434 23.9126 28.0322 23.94 28.2186C24.3019 29.6285 24.346 31.1008 24.0688 32.5297C23.9829 33.0038 23.8805 33.4729 23.7864 33.9454C23.9598 33.793 24.1003 33.6071 24.1993 33.3988C24.2752 33.2573 24.3314 33.035 24.5114 33.0696C24.741 33.1141 24.6617 33.333 24.6915 33.5207C24.7785 34.219 24.7039 34.9279 24.4734 35.5931C24.1712 36.5906 23.7748 37.5503 23.3999 38.5363C24.8104 37.4071 25.7122 35.9223 26.4141 34.296C27.519 32.7799 27.7832 30.9873 27.9005 29.2161C28.1565 25.7708 27.4628 22.4704 25.3207 19.7132ZM3.82198 16.3995C4.20845 14.9806 5.48184 14.3732 6.7585 14.951C6.02354 15.9304 4.78156 15.7872 3.82198 16.3995ZM10.2103 28.0671C10.8924 29.0202 12.0485 29.3708 13.0048 30.2449C10.899 29.8614 9.44892 28.7634 8.28786 27.2293C7.9085 26.6001 7.65132 25.9054 7.5298 25.1815C7.50339 25.0334 7.32498 24.8704 7.54464 24.7733C7.7643 24.6761 7.80728 24.9165 7.875 25.0448C8.44662 26.1954 9.24018 27.2224 10.2103 28.0671ZM13.4607 21.8382C12.8577 21.6147 12.3257 21.2344 11.9197 20.737C12.6497 20.8341 12.9668 21.4465 13.4607 21.8382ZM11.5481 10.974C12.7422 8.75833 14.4962 7.23735 16.9455 6.55089C17.1305 6.49986 17.3551 6.41591 17.4657 6.60196C17.5599 6.76656 17.4096 6.93117 17.3237 7.11056C16.8117 8.16242 15.9463 8.83735 14.9917 9.45135C14.0371 10.0654 12.9668 10.5394 12.0849 11.2884C12.0055 11.3451 11.9202 11.3932 11.8306 11.4316C11.5002 11.3937 11.3499 11.3493 11.5531 10.9806L11.5481 10.974Z" fill="white"/>
<path d="M10.3211 36.5783C9.72431 36.4833 9.16576 36.2252 8.70744 35.8326C8.40523 35.5775 8.17894 35.1462 7.66696 35.1544C8.52908 37.0524 10.1675 37.7882 12.009 38.226C13.1403 38.4993 14.1428 38.9553 14.6053 40.1668C14.5606 39.6518 14.4206 39.1495 14.1924 38.6853C13.3534 37.1446 11.829 36.8433 10.3211 36.5783Z" fill="white"/>
<path d="M11.819 32.2168C13.0048 33.9946 15.0578 34.4884 16.8085 35.509C16.3857 34.1855 13.4855 32.2908 11.819 32.2168Z" fill="white"/>
</g>
<defs>
<clipPath id="clip0_3135_912">
<rect width="28" height="40" fill="white" transform="translate(0 0.25)"/>
</clipPath>
</defs>
</svg>
