<svg width="60" height="86" viewBox="0 0 60 86" fill="none" xmlns="http://www.w3.org/2000/svg">
<path d="M54.2587 41.8461C49.3782 35.5393 42.5796 32.3754 34.5989 32.3329C31.58 32.3152 29.1805 31.4587 27.0145 29.4733C25.836 28.3868 25.8325 27.9939 27.2552 27.1658C32.3055 24.2354 37.0055 20.8803 39.9217 15.6282C42.2088 11.477 44.1216 7.13031 45.6374 2.63967C46.2567 0.827644 46.1258 0.64008 44.1864 0.647158C39.8368 0.664853 36.6551 3.3298 33.6398 5.83904C28.3559 10.2382 24.4381 15.876 20.9202 21.7651C19.9044 23.4568 18.595 24.4548 16.6308 24.7415C12.1148 25.3998 8.49079 27.548 5.90369 31.3738C4.38895 33.6282 3.11841 36.0242 0.828597 37.7159C-0.134044 38.4237 -0.0455656 39.9986 0.563163 40.9719C2.02128 43.3042 4.14121 44.8437 6.95834 45.2507C9.77548 45.6577 11.0779 46.8787 11.6548 49.6498C12.3237 52.8633 12.9359 56.0875 14.7515 58.9152C16.068 61.8739 18.5454 63.647 21.3095 64.9636C23.7373 66.1209 26.3421 66.8995 28.8549 67.8834C33.346 69.6529 37.3488 72.0631 40.0491 76.2392C40.5835 77.0744 41.0224 77.9698 41.5037 78.8369C41.6276 78.474 41.6424 78.0827 41.5462 77.7115C40.3818 72.0489 36.5277 68.262 32.1356 65.0627C29.361 63.0454 26.3492 61.3395 23.7302 59.0816C19.9894 55.2664 17.8978 50.6514 17.0059 45.4418C18.1731 48.1281 19.9668 50.4957 22.2367 52.3466C22.5906 53.4084 23.5285 53.9817 24.3213 54.6435C27.6976 57.4748 31.6154 59.3895 35.5792 61.1661C39.8934 63.0985 42.5442 66.1987 43.3653 70.8774C43.2803 65.7493 42.2292 60.9042 39.543 56.498C37.508 52.5873 33.9194 50.2868 30.5572 47.7139C33.8344 48.673 36.2552 51.0194 38.9166 52.966C38.7786 53.6065 39.3448 53.8755 39.6244 54.286C41.4789 56.9439 43.1635 59.6903 44.2253 62.7799C44.5473 63.7426 44.8623 64.7088 45.3083 66.0607C45.6622 64.9707 45.9028 64.2911 46.1541 63.5833C46.8619 65.3529 46.554 67.0977 46.646 69.0513C47.7078 66.5739 48.1926 59.8106 47.5698 57.5845C47.4317 57.0926 47.4919 56.5228 47.007 56.1689C47.1628 53.5641 45.7471 51.476 44.8552 49.1579C48.0051 51.7379 49.8702 55.1744 51.2575 58.9223C51.227 59.3261 51.2413 59.732 51.3 60.1327C52.0756 63.164 52.1699 66.3295 51.576 69.4016C51.392 70.4209 51.1726 71.4295 50.9708 72.4453C51.3425 72.1178 51.6436 71.718 51.8556 71.2703C52.0184 70.9659 52.1388 70.4881 52.5245 70.5625C53.0165 70.658 52.8466 71.1287 52.9103 71.5322C53.0967 73.0336 52.9369 74.5578 52.4431 75.9879C51.7955 78.1326 50.9461 80.1959 50.1427 82.3159C53.1651 79.888 55.0975 76.6958 56.6016 73.1991C58.9692 69.9396 59.5355 66.0855 59.7868 62.2774C60.3354 54.87 58.8489 47.7741 54.2587 41.8461ZM8.18996 34.7218C9.01812 31.6711 11.7468 30.3651 14.4825 31.6074C12.9076 33.7132 10.2462 33.4053 8.18996 34.7218ZM21.8793 59.8071C23.3409 61.8562 25.8183 62.6101 27.8675 64.4893C23.3551 63.6647 20.2477 61.3041 17.7597 58.0057C16.9468 56.653 16.3957 55.1595 16.1353 53.603C16.0787 53.2845 15.6964 52.9341 16.1671 52.7253C16.6378 52.5165 16.7299 53.0332 16.875 53.3092C18.0999 55.783 19.8004 57.991 21.8793 59.8071ZM28.8443 46.415C27.5522 45.9343 26.4122 45.1168 25.5423 44.0474C27.1065 44.2562 27.7861 45.5727 28.8443 46.415ZM24.746 23.0569C27.3047 18.2932 31.0633 15.0231 36.3118 13.5472C36.7082 13.4375 37.1895 13.257 37.4266 13.657C37.6284 14.0109 37.3063 14.3648 37.1223 14.7505C36.0251 17.012 34.1706 18.4631 32.125 19.7832C30.0794 21.1033 27.7861 22.1225 25.8962 23.7328C25.7261 23.8548 25.5434 23.9581 25.3512 24.0407C24.6433 23.9593 24.3213 23.8638 24.7566 23.071L24.746 23.0569Z" fill="url(#paint0_linear_168_49)"/>
<path d="M22.1166 78.1075C20.8378 77.9033 19.6409 77.3483 18.6588 76.5043C18.0112 75.9557 17.5263 75.0285 16.4292 75.0461C18.2766 79.1268 21.7874 80.7087 25.7335 81.6501C28.1578 82.2376 30.3061 83.218 31.297 85.8228C31.2013 84.7155 30.9013 83.6356 30.4123 82.6376C28.6144 79.3249 25.3478 78.6773 22.1166 78.1075Z" fill="url(#paint1_linear_168_49)"/>
<path d="M25.3264 68.73C27.8675 72.5522 32.2666 73.614 36.0181 75.8082C35.1121 72.9628 28.8974 68.8892 25.3264 68.73Z" fill="url(#paint2_linear_168_49)"/>
<defs>
<linearGradient id="paint0_linear_168_49" x1="0.104736" y1="41.4814" x2="59.8952" y2="41.4814" gradientUnits="userSpaceOnUse">
<stop stopColor="#9B87F5"/>
<stop offset="1" stopColor="#4FD1C5"/>
</linearGradient>
<linearGradient id="paint1_linear_168_49" x1="16.4292" y1="80.4343" x2="31.297" y2="80.4343" gradientUnits="userSpaceOnUse">
<stop stopColor="#9B87F5"/>
<stop offset="1" stopColor="#4FD1C5"/>
</linearGradient>
<linearGradient id="paint2_linear_168_49" x1="25.3264" y1="72.2691" x2="36.0181" y2="72.2691" gradientUnits="userSpaceOnUse">
<stop stopColor="#9B87F5"/>
<stop offset="1" stopColor="#4FD1C5"/>
</linearGradient>
</defs>
</svg>
