<svg width="134" height="99" viewBox="0 0 134 99" fill="none" xmlns="http://www.w3.org/2000/svg">
<path d="M133.704 6.08514V4.58514H130.704V6.08514H133.704ZM130.704 15.2792C130.704 16.1076 131.376 16.7792 132.204 16.7792C133.033 16.7792 133.704 16.1076 133.704 15.2792H130.704ZM132.204 6.08514H130.704V15.2792H132.204H133.704V6.08514H132.204Z" fill="url(#paint0_linear_1_15)" fill-opacity="0.6"/>
<path d="M3.5 6.08514V4.58514H0.5V6.08514H3.5ZM0.5 15.2792C0.5 16.1076 1.17157 16.7792 2 16.7792C2.82843 16.7792 3.5 16.1076 3.5 15.2792H0.5ZM2 6.08514H0.5V15.2792H2H3.5V6.08514H2Z" fill="url(#paint1_linear_1_15)" fill-opacity="0.6"/>
<path d="M126.274 18.796V17.296H123.274V18.796H126.274ZM123.274 27.99C123.274 28.8184 123.945 29.49 124.774 29.49C125.602 29.49 126.274 28.8184 126.274 27.99H123.274ZM124.774 18.796H123.274V27.99H124.774H126.274V18.796H124.774Z" fill="url(#paint2_linear_1_15)" fill-opacity="0.6"/>
<path d="M114.274 2V0.5H111.274V2H114.274ZM111.274 11.1941C111.274 12.0225 111.945 12.6941 112.774 12.6941C113.602 12.6941 114.274 12.0225 114.274 11.1941H111.274ZM112.774 2H111.274V11.1941H112.774H114.274V2H112.774Z" fill="url(#paint3_linear_1_15)" fill-opacity="0.6"/>
<path d="M102.274 27.403V25.903H99.2739V27.403H102.274ZM99.2739 36.5971C99.2739 37.4255 99.9455 38.0971 100.774 38.0971C101.602 38.0971 102.274 37.4255 102.274 36.5971H99.2739ZM100.774 27.403H99.2739V36.5971H100.774H102.274V27.403H100.774Z" fill="url(#paint4_linear_1_15)" fill-opacity="0.6"/>
<path d="M23.2188 2V0.5H20.2188V2H23.2188ZM20.2188 11.1941C20.2188 12.0225 20.8903 12.6941 21.7188 12.6941C22.5472 12.6941 23.2188 12.0225 23.2188 11.1941H20.2188ZM21.7188 2H20.2188V11.1941H21.7188H23.2188V2H21.7188Z" fill="url(#paint5_linear_1_15)" fill-opacity="0.6"/>
<path d="M12.6782 18.2089V16.7089H9.67822V18.2089H12.6782ZM9.67822 27.403C9.67822 28.2314 10.3498 28.903 11.1782 28.903C12.0066 28.903 12.6782 28.2314 12.6782 27.403H9.67822ZM11.1782 18.2089H9.67822V27.403H11.1782H12.6782V18.2089H11.1782Z" fill="url(#paint6_linear_1_15)" fill-opacity="0.6"/>
<path d="M30.0396 27.403V25.903H27.0396V27.403H30.0396ZM27.0396 36.5971C27.0396 37.4255 27.7111 38.0971 28.5396 38.0971C29.368 38.0971 30.0396 37.4255 30.0396 36.5971H27.0396ZM28.5396 27.403H27.0396V36.5971H28.5396H30.0396V27.403H28.5396Z" fill="url(#paint7_linear_1_15)" fill-opacity="0.6"/>
<path d="M52.3608 2V0.5H49.3608V2H52.3608ZM49.3608 11.1941C49.3608 12.0225 50.0324 12.6941 50.8608 12.6941C51.6893 12.6941 52.3608 12.0225 52.3608 11.1941H49.3608ZM50.8608 2H49.3608V11.1941H50.8608H52.3608V2H50.8608Z" fill="url(#paint8_linear_1_15)" fill-opacity="0.6"/>
<path d="M90.8032 36.5971V35.0971H87.8032V36.5971H90.8032ZM87.8032 45.7912C87.8032 46.6196 88.4748 47.2912 89.3032 47.2912C90.1316 47.2912 90.8032 46.6196 90.8032 45.7912H87.8032ZM89.3032 36.5971H87.8032V45.7912H89.3032H90.8032V36.5971H89.3032Z" fill="url(#paint9_linear_1_15)" fill-opacity="0.6"/>
<path d="M32.625 77.125C32.625 76.8594 32.5833 76.625 32.5 76.4219C32.4219 76.2135 32.2812 76.026 32.0781 75.8594C31.8802 75.6927 31.6042 75.5339 31.25 75.3828C30.901 75.2318 30.4583 75.0781 29.9219 74.9219C29.3594 74.7552 28.8516 74.5703 28.3984 74.3672C27.9453 74.1589 27.5573 73.9219 27.2344 73.6562C26.9115 73.3906 26.6641 73.0859 26.4922 72.7422C26.3203 72.3984 26.2344 72.0052 26.2344 71.5625C26.2344 71.1198 26.3255 70.7109 26.5078 70.3359C26.6901 69.9609 26.9505 69.6354 27.2891 69.3594C27.6328 69.0781 28.0417 68.8594 28.5156 68.7031C28.9896 68.5469 29.5182 68.4688 30.1016 68.4688C30.9557 68.4688 31.6797 68.6328 32.2734 68.9609C32.8724 69.2839 33.3281 69.7083 33.6406 70.2344C33.9531 70.7552 34.1094 71.3125 34.1094 71.9062H32.6094C32.6094 71.4792 32.5182 71.1016 32.3359 70.7734C32.1536 70.4401 31.8776 70.1797 31.5078 69.9922C31.138 69.7995 30.6693 69.7031 30.1016 69.7031C29.5651 69.7031 29.1224 69.7839 28.7734 69.9453C28.4245 70.1068 28.1641 70.3255 27.9922 70.6016C27.8255 70.8776 27.7422 71.1927 27.7422 71.5469C27.7422 71.7865 27.7917 72.0052 27.8906 72.2031C27.9948 72.3958 28.1536 72.5755 28.3672 72.7422C28.5859 72.9089 28.862 73.0625 29.1953 73.2031C29.5339 73.3438 29.9375 73.4792 30.4062 73.6094C31.0521 73.7917 31.6094 73.9948 32.0781 74.2188C32.5469 74.4427 32.9323 74.6953 33.2344 74.9766C33.5417 75.2526 33.7682 75.5677 33.9141 75.9219C34.0651 76.2708 34.1406 76.6667 34.1406 77.1094C34.1406 77.5729 34.0469 77.9922 33.8594 78.3672C33.6719 78.7422 33.4036 79.0625 33.0547 79.3281C32.7057 79.5938 32.2865 79.7995 31.7969 79.9453C31.3125 80.0859 30.7708 80.1562 30.1719 80.1562C29.6458 80.1562 29.1276 80.0833 28.6172 79.9375C28.112 79.7917 27.651 79.5729 27.2344 79.2812C26.8229 78.9896 26.4922 78.6302 26.2422 78.2031C25.9974 77.7708 25.875 77.2708 25.875 76.7031H27.375C27.375 77.0938 27.4505 77.4297 27.6016 77.7109C27.7526 77.987 27.9583 78.2161 28.2188 78.3984C28.4844 78.5807 28.7839 78.7161 29.1172 78.8047C29.4557 78.888 29.8073 78.9297 30.1719 78.9297C30.6979 78.9297 31.1432 78.8568 31.5078 78.7109C31.8724 78.5651 32.1484 78.3568 32.3359 78.0859C32.5286 77.8151 32.625 77.4948 32.625 77.125ZM39.2266 78.9688C39.5703 78.9688 39.888 78.8984 40.1797 78.7578C40.4714 78.6172 40.7109 78.4245 40.8984 78.1797C41.0859 77.9297 41.1927 77.6458 41.2188 77.3281H42.5938C42.5677 77.8281 42.3984 78.2943 42.0859 78.7266C41.7786 79.1536 41.375 79.5 40.875 79.7656C40.375 80.026 39.8255 80.1562 39.2266 80.1562C38.5911 80.1562 38.0365 80.0443 37.5625 79.8203C37.0938 79.5964 36.7031 79.2891 36.3906 78.8984C36.0833 78.5078 35.8516 78.0599 35.6953 77.5547C35.5443 77.0443 35.4688 76.5052 35.4688 75.9375V75.6094C35.4688 75.0417 35.5443 74.5052 35.6953 74C35.8516 73.4896 36.0833 73.0391 36.3906 72.6484C36.7031 72.2578 37.0938 71.9505 37.5625 71.7266C38.0365 71.5026 38.5911 71.3906 39.2266 71.3906C39.888 71.3906 40.4661 71.526 40.9609 71.7969C41.4557 72.0625 41.8438 72.4271 42.125 72.8906C42.4115 73.349 42.5677 73.8698 42.5938 74.4531H41.2188C41.1927 74.1042 41.0938 73.7891 40.9219 73.5078C40.7552 73.2266 40.526 73.0026 40.2344 72.8359C39.9479 72.6641 39.612 72.5781 39.2266 72.5781C38.7839 72.5781 38.4115 72.6667 38.1094 72.8438C37.8125 73.0156 37.5755 73.25 37.3984 73.5469C37.2266 73.8385 37.1016 74.1641 37.0234 74.5234C36.9505 74.8776 36.9141 75.2396 36.9141 75.6094V75.9375C36.9141 76.3073 36.9505 76.6719 37.0234 77.0312C37.0964 77.3906 37.2188 77.7161 37.3906 78.0078C37.5677 78.2995 37.8047 78.5339 38.1016 78.7109C38.4036 78.8828 38.7786 78.9688 39.2266 78.9688ZM45.6641 72.875V80H44.2188V71.5469H45.625L45.6641 72.875ZM48.3047 71.5L48.2969 72.8438C48.1771 72.8177 48.0625 72.8021 47.9531 72.7969C47.849 72.7865 47.7292 72.7812 47.5938 72.7812C47.2604 72.7812 46.9661 72.8333 46.7109 72.9375C46.4557 73.0417 46.2396 73.1875 46.0625 73.375C45.8854 73.5625 45.7448 73.7865 45.6406 74.0469C45.5417 74.3021 45.4766 74.5833 45.4453 74.8906L45.0391 75.125C45.0391 74.6146 45.0885 74.1354 45.1875 73.6875C45.2917 73.2396 45.4505 72.8438 45.6641 72.5C45.8776 72.151 46.1484 71.8802 46.4766 71.6875C46.8099 71.4896 47.2057 71.3906 47.6641 71.3906C47.7682 71.3906 47.888 71.4036 48.0234 71.4297C48.1589 71.4505 48.2526 71.474 48.3047 71.5ZM49.1016 75.8672V75.6875C49.1016 75.0781 49.1901 74.513 49.3672 73.9922C49.5443 73.4661 49.7995 73.0104 50.1328 72.625C50.4661 72.2344 50.8698 71.9323 51.3438 71.7188C51.8177 71.5 52.349 71.3906 52.9375 71.3906C53.5312 71.3906 54.0651 71.5 54.5391 71.7188C55.0182 71.9323 55.4245 72.2344 55.7578 72.625C56.0964 73.0104 56.3542 73.4661 56.5312 73.9922C56.7083 74.513 56.7969 75.0781 56.7969 75.6875V75.8672C56.7969 76.4766 56.7083 77.0417 56.5312 77.5625C56.3542 78.0833 56.0964 78.5391 55.7578 78.9297C55.4245 79.3151 55.0208 79.6172 54.5469 79.8359C54.0781 80.0495 53.5469 80.1562 52.9531 80.1562C52.3594 80.1562 51.8255 80.0495 51.3516 79.8359C50.8776 79.6172 50.4714 79.3151 50.1328 78.9297C49.7995 78.5391 49.5443 78.0833 49.3672 77.5625C49.1901 77.0417 49.1016 76.4766 49.1016 75.8672ZM50.5469 75.6875V75.8672C50.5469 76.2891 50.5964 76.6875 50.6953 77.0625C50.7943 77.4323 50.9427 77.7604 51.1406 78.0469C51.3438 78.3333 51.5964 78.5599 51.8984 78.7266C52.2005 78.888 52.5521 78.9688 52.9531 78.9688C53.349 78.9688 53.6953 78.888 53.9922 78.7266C54.2943 78.5599 54.5443 78.3333 54.7422 78.0469C54.9401 77.7604 55.0885 77.4323 55.1875 77.0625C55.2917 76.6875 55.3438 76.2891 55.3438 75.8672V75.6875C55.3438 75.2708 55.2917 74.8776 55.1875 74.5078C55.0885 74.1328 54.9375 73.8021 54.7344 73.5156C54.5365 73.224 54.2865 72.9948 53.9844 72.8281C53.6875 72.6615 53.3385 72.5781 52.9375 72.5781C52.5417 72.5781 52.1927 72.6615 51.8906 72.8281C51.5938 72.9948 51.3438 73.224 51.1406 73.5156C50.9427 73.8021 50.7943 74.1328 50.6953 74.5078C50.5964 74.8776 50.5469 75.2708 50.5469 75.6875ZM60.1797 68V80H58.7266V68H60.1797ZM64.0703 68V80H62.6172V68H64.0703ZM73.6562 80H71.2812L71.2969 78.7734H73.6562C74.4688 78.7734 75.1458 78.6042 75.6875 78.2656C76.2292 77.9219 76.6354 77.4427 76.9062 76.8281C77.1823 76.2083 77.3203 75.4844 77.3203 74.6562V73.9609C77.3203 73.3099 77.2422 72.7318 77.0859 72.2266C76.9297 71.7161 76.7005 71.2865 76.3984 70.9375C76.0964 70.5833 75.7266 70.3151 75.2891 70.1328C74.8568 69.9505 74.3594 69.8594 73.7969 69.8594H71.2344V68.625H73.7969C74.5417 68.625 75.2214 68.75 75.8359 69C76.4505 69.2448 76.9792 69.6016 77.4219 70.0703C77.8698 70.5339 78.2135 71.0964 78.4531 71.7578C78.6927 72.4141 78.8125 73.1536 78.8125 73.9766V74.6562C78.8125 75.4792 78.6927 76.2214 78.4531 76.8828C78.2135 77.5391 77.8672 78.099 77.4141 78.5625C76.9661 79.026 76.4245 79.3828 75.7891 79.6328C75.1589 79.8776 74.4479 80 73.6562 80ZM72.0859 68.625V80H70.5781V68.625H72.0859ZM80.4766 75.8672V75.6875C80.4766 75.0781 80.5651 74.513 80.7422 73.9922C80.9193 73.4661 81.1745 73.0104 81.5078 72.625C81.8411 72.2344 82.2448 71.9323 82.7188 71.7188C83.1927 71.5 83.724 71.3906 84.3125 71.3906C84.9062 71.3906 85.4401 71.5 85.9141 71.7188C86.3932 71.9323 86.7995 72.2344 87.1328 72.625C87.4714 73.0104 87.7292 73.4661 87.9062 73.9922C88.0833 74.513 88.1719 75.0781 88.1719 75.6875V75.8672C88.1719 76.4766 88.0833 77.0417 87.9062 77.5625C87.7292 78.0833 87.4714 78.5391 87.1328 78.9297C86.7995 79.3151 86.3958 79.6172 85.9219 79.8359C85.4531 80.0495 84.9219 80.1562 84.3281 80.1562C83.7344 80.1562 83.2005 80.0495 82.7266 79.8359C82.2526 79.6172 81.8464 79.3151 81.5078 78.9297C81.1745 78.5391 80.9193 78.0833 80.7422 77.5625C80.5651 77.0417 80.4766 76.4766 80.4766 75.8672ZM81.9219 75.6875V75.8672C81.9219 76.2891 81.9714 76.6875 82.0703 77.0625C82.1693 77.4323 82.3177 77.7604 82.5156 78.0469C82.7188 78.3333 82.9714 78.5599 83.2734 78.7266C83.5755 78.888 83.9271 78.9688 84.3281 78.9688C84.724 78.9688 85.0703 78.888 85.3672 78.7266C85.6693 78.5599 85.9193 78.3333 86.1172 78.0469C86.3151 77.7604 86.4635 77.4323 86.5625 77.0625C86.6667 76.6875 86.7188 76.2891 86.7188 75.8672V75.6875C86.7188 75.2708 86.6667 74.8776 86.5625 74.5078C86.4635 74.1328 86.3125 73.8021 86.1094 73.5156C85.9115 73.224 85.6615 72.9948 85.3594 72.8281C85.0625 72.6615 84.7135 72.5781 84.3125 72.5781C83.9167 72.5781 83.5677 72.6615 83.2656 72.8281C82.9688 72.9948 82.7188 73.224 82.5156 73.5156C82.3177 73.8021 82.1693 74.1328 82.0703 74.5078C81.9714 74.8776 81.9219 75.2708 81.9219 75.6875ZM92.125 78.5L94.2969 71.5469H95.25L95.0625 72.9297L92.8516 80H91.9219L92.125 78.5ZM90.6641 71.5469L92.5156 78.5781L92.6484 80H91.6719L89.2188 71.5469H90.6641ZM97.3281 78.5234L99.0938 71.5469H100.531L98.0781 80H97.1094L97.3281 78.5234ZM95.4609 71.5469L97.5859 78.3828L97.8281 80H96.9062L94.6328 72.9141L94.4453 71.5469H95.4609ZM103.461 73.3516V80H102.016V71.5469H103.383L103.461 73.3516ZM103.117 75.4531L102.516 75.4297C102.521 74.8516 102.607 74.3177 102.773 73.8281C102.94 73.3333 103.174 72.9036 103.477 72.5391C103.779 72.1745 104.138 71.8932 104.555 71.6953C104.977 71.4922 105.443 71.3906 105.953 71.3906C106.37 71.3906 106.745 71.4479 107.078 71.5625C107.411 71.6719 107.695 71.849 107.93 72.0938C108.169 72.3385 108.352 72.6562 108.477 73.0469C108.602 73.4323 108.664 73.9036 108.664 74.4609V80H107.211V74.4453C107.211 74.0026 107.146 73.6484 107.016 73.3828C106.885 73.112 106.695 72.9167 106.445 72.7969C106.195 72.6719 105.888 72.6094 105.523 72.6094C105.164 72.6094 104.836 72.6849 104.539 72.8359C104.247 72.987 103.995 73.1953 103.781 73.4609C103.573 73.7266 103.409 74.0312 103.289 74.375C103.174 74.7135 103.117 75.0729 103.117 75.4531Z" fill="#D1D5DB"/>
<path d="M67 98V84M67 98L61 92M67 98L73 92" stroke="#D1D5DB" stroke-width="2" stroke-linecap="round" stroke-linejoin="round"/>
<defs>
<linearGradient id="paint0_linear_1_15" x1="130.72" y1="6.52973" x2="133.301" y2="15.2792" gradientUnits="userSpaceOnUse">
<stop stop-color="#9B87F5"/>
<stop offset="1" stop-color="#4FD1C5"/>
</linearGradient>
<linearGradient id="paint1_linear_1_15" x1="0.516263" y1="6.52973" x2="3.09691" y2="15.2792" gradientUnits="userSpaceOnUse">
<stop stop-color="#9B87F5"/>
<stop offset="1" stop-color="#4FD1C5"/>
</linearGradient>
<linearGradient id="paint2_linear_1_15" x1="123.29" y1="19.2405" x2="125.871" y2="27.99" gradientUnits="userSpaceOnUse">
<stop stop-color="#9B87F5"/>
<stop offset="1" stop-color="#4FD1C5"/>
</linearGradient>
<linearGradient id="paint3_linear_1_15" x1="111.29" y1="2.44459" x2="113.871" y2="11.1941" gradientUnits="userSpaceOnUse">
<stop stop-color="#9B87F5"/>
<stop offset="1" stop-color="#4FD1C5"/>
</linearGradient>
<linearGradient id="paint4_linear_1_15" x1="99.2902" y1="27.8476" x2="101.871" y2="36.5971" gradientUnits="userSpaceOnUse">
<stop stop-color="#9B87F5"/>
<stop offset="1" stop-color="#4FD1C5"/>
</linearGradient>
<linearGradient id="paint5_linear_1_15" x1="20.235" y1="2.44459" x2="22.8157" y2="11.1941" gradientUnits="userSpaceOnUse">
<stop stop-color="#9B87F5"/>
<stop offset="1" stop-color="#4FD1C5"/>
</linearGradient>
<linearGradient id="paint6_linear_1_15" x1="9.69449" y1="18.6535" x2="12.2751" y2="27.403" gradientUnits="userSpaceOnUse">
<stop stop-color="#9B87F5"/>
<stop offset="1" stop-color="#4FD1C5"/>
</linearGradient>
<linearGradient id="paint7_linear_1_15" x1="27.0558" y1="27.8476" x2="29.6365" y2="36.5971" gradientUnits="userSpaceOnUse">
<stop stop-color="#9B87F5"/>
<stop offset="1" stop-color="#4FD1C5"/>
</linearGradient>
<linearGradient id="paint8_linear_1_15" x1="49.3771" y1="2.44459" x2="51.9578" y2="11.1941" gradientUnits="userSpaceOnUse">
<stop stop-color="#9B87F5"/>
<stop offset="1" stop-color="#4FD1C5"/>
</linearGradient>
<linearGradient id="paint9_linear_1_15" x1="87.8195" y1="37.0417" x2="90.4001" y2="45.7912" gradientUnits="userSpaceOnUse">
<stop stop-color="#9B87F5"/>
<stop offset="1" stop-color="#4FD1C5"/>
</linearGradient>
</defs>
</svg>
