<svg width="38" height="41" viewBox="0 0 38 41" fill="none" xmlns="http://www.w3.org/2000/svg">
<path fill-rule="evenodd" clip-rule="evenodd" d="M4.12313 19.5717C12.5117 15.7232 18.1054 13.1861 20.9042 11.9603C28.8954 8.4603 30.5559 7.85235 31.6382 7.83224C31.8763 7.82783 32.4085 7.88999 32.7533 8.18455C33.0444 8.43327 33.1245 8.76927 33.1628 9.00512C33.2012 9.24096 33.2489 9.77814 33.2109 10.1979C32.7779 14.9891 30.9041 26.616 29.9508 31.9822C29.5475 34.2529 28.7532 35.0142 27.9843 35.0887C26.3133 35.2506 25.0444 33.9258 23.4259 32.8087C20.8933 31.0606 19.4625 29.9723 17.0042 28.2665C14.1632 26.2951 16.0049 25.2116 17.624 23.4408C18.0477 22.9774 25.4103 15.9256 25.5528 15.2859C25.5707 15.2059 25.5872 14.9077 25.4189 14.7502C25.2507 14.5928 25.0024 14.6466 24.8232 14.6894C24.5691 14.7501 20.5233 17.566 12.6856 23.1371C11.5371 23.9674 10.497 24.372 9.565 24.3508C8.5376 24.3274 6.5612 23.7391 5.092 23.2362C3.28994 22.6194 1.85771 22.2933 1.98242 21.2457C2.04738 20.7001 2.76095 20.1421 4.12313 19.5717Z" fill="white"/>
</svg>
