<svg width="64" height="54" viewBox="0 0 64 54" fill="none" xmlns="http://www.w3.org/2000/svg">
<path fillRule="evenodd" clipRule="evenodd" d="M5.24626 23.6789C22.0234 16.1744 33.2109 11.227 38.8085 8.83666C54.7909 2.01175 58.1119 0.826186 60.2765 0.787038C60.7526 0.778428 61.8171 0.899562 62.5066 1.47398C63.0888 1.95902 63.249 2.61423 63.3257 3.07409C63.4024 3.53395 63.4978 4.58153 63.4219 5.40008C62.5558 14.7429 58.8083 37.4153 56.9017 47.8794C56.095 52.3072 54.5065 53.7918 52.9687 53.9371C49.6266 54.2528 47.0888 51.6695 43.8518 49.491C38.7866 46.0822 35.9251 43.9602 31.0084 40.6338C25.3264 36.7895 29.0098 34.6767 32.248 31.2237C33.0954 30.32 47.8207 16.5691 48.1057 15.3217C48.1413 15.1656 48.1744 14.5841 47.8379 14.277C47.5014 13.97 47.0048 14.075 46.6464 14.1585C46.1383 14.2769 38.0466 19.7678 22.3712 30.6314C20.0743 32.2506 17.994 33.0395 16.13 32.9982C14.0752 32.9526 10.1224 31.8053 7.18401 30.8247C3.57989 29.6219 0.715416 28.986 0.964848 26.9433C1.09477 25.8793 2.5219 24.7912 5.24626 23.6789Z" fill="url(#paint0_linear_137_4151)"/>
<defs>
<linearGradient id="paint0_linear_137_4151" x1="0.949707" y1="27.375" x2="63.4497" y2="27.375" gradientUnits="userSpaceOnUse">
<stop stopColor="#9B87F5"/>
<stop offset="1" stopColor="#4FD1C5"/>
</linearGradient>
</defs>
</svg>
