<svg width="76" height="78" viewBox="0 0 76 78" fill="none" xmlns="http://www.w3.org/2000/svg">
<path fill-rule="evenodd" clip-rule="evenodd" d="M8.24626 37.6789C25.0234 30.1744 36.2109 25.227 41.8085 22.8367C57.7909 16.0117 61.1119 14.8262 63.2765 14.787C63.7526 14.7784 64.8171 14.8996 65.5066 15.474C66.0888 15.959 66.249 16.6142 66.3257 17.0741C66.4024 17.534 66.4978 18.5815 66.4219 19.4001C65.5558 28.7429 61.8083 51.4153 59.9017 61.8794C59.095 66.3072 57.5065 67.7918 55.9687 67.9371C52.6266 68.2528 50.0888 65.6695 46.8518 63.491C41.7866 60.0822 38.9251 57.9602 34.0084 54.6338C28.3264 50.7895 32.0098 48.6767 35.248 45.2237C36.0954 44.32 50.8207 30.5691 51.1057 29.3217C51.1413 29.1656 51.1744 28.5841 50.8379 28.277C50.5014 27.97 50.0048 28.075 49.6464 28.1585C49.1383 28.2769 41.0466 33.7678 25.3712 44.6314C23.0743 46.2506 20.994 47.0395 19.13 46.9982C17.0752 46.9526 13.1224 45.8053 10.184 44.8247C6.57989 43.6219 3.71542 42.986 3.96485 40.9433C4.09477 39.8793 5.5219 38.7912 8.24626 37.6789Z" fill="url(#paint0_linear_137_4149)"/>
<defs>
<linearGradient id="paint0_linear_137_4149" x1="3.94971" y1="41.375" x2="66.4497" y2="41.375" gradientUnits="userSpaceOnUse">
<stop stop-color="#9B87F5"/>
<stop offset="1" stop-color="#4FD1C5"/>
</linearGradient>
</defs>
</svg>
