<svg width="18" height="18" viewBox="0 0 18 18" fill="none" xmlns="http://www.w3.org/2000/svg">
<path d="M10.5 6H3C2.17275 6 1.5 6.67275 1.5 7.5V15C1.5 15.8273 2.17275 16.5 3 16.5H10.5C11.3273 16.5 12 15.8273 12 15V7.5C12 6.67275 11.3273 6 10.5 6Z" fill="url(#paint0_linear_3135_1105)"/>
<path d="M15 1.5H7.5C7.10218 1.5 6.72064 1.65804 6.43934 1.93934C6.15804 2.22064 6 2.60218 6 3V4.5H12C12.3978 4.5 12.7794 4.65804 13.0607 4.93934C13.342 5.22064 13.5 5.60218 13.5 6V12H15C15.3978 12 15.7794 11.842 16.0607 11.5607C16.342 11.2794 16.5 10.8978 16.5 10.5V3C16.5 2.60218 16.342 2.22064 16.0607 1.93934C15.7794 1.65804 15.3978 1.5 15 1.5Z" fill="url(#paint1_linear_3135_1105)"/>
<defs>
<linearGradient id="paint0_linear_3135_1105" x1="1.5" y1="11.25" x2="12" y2="11.25" gradientUnits="userSpaceOnUse">
<stop stop-color="#988AF3"/>
<stop offset="1" stop-color="#56C9C9"/>
</linearGradient>
<linearGradient id="paint1_linear_3135_1105" x1="6" y1="6.75" x2="16.5" y2="6.75" gradientUnits="userSpaceOnUse">
<stop stop-color="#988AF3"/>
<stop offset="1" stop-color="#56C9C9"/>
</linearGradient>
</defs>
</svg>
