<svg width="20" height="20" viewBox="0 0 20 20" fill="none" xmlns="http://www.w3.org/2000/svg">
<path d="M11.6667 6.66663H3.33335C2.41419 6.66663 1.66669 7.41413 1.66669 8.33329V16.6666C1.66669 17.5858 2.41419 18.3333 3.33335 18.3333H11.6667C12.5859 18.3333 13.3334 17.5858 13.3334 16.6666V8.33329C13.3334 7.41413 12.5859 6.66663 11.6667 6.66663Z" fill="url(#paint0_linear_3135_1159)"/>
<path d="M16.6667 1.66663H8.33335C7.89133 1.66663 7.4674 1.84222 7.15484 2.15478C6.84228 2.46734 6.66669 2.89127 6.66669 3.33329V4.99996H13.3334C13.7754 4.99996 14.1993 5.17555 14.5119 5.48812C14.8244 5.80068 15 6.2246 15 6.66663V13.3333H16.6667C17.1087 13.3333 17.5326 13.1577 17.8452 12.8451C18.1578 12.5326 18.3334 12.1087 18.3334 11.6666V3.33329C18.3334 2.89127 18.1578 2.46734 17.8452 2.15478C17.5326 1.84222 17.1087 1.66663 16.6667 1.66663Z" fill="url(#paint1_linear_3135_1159)"/>
<defs>
<linearGradient id="paint0_linear_3135_1159" x1="1.66669" y1="12.5" x2="13.3334" y2="12.5" gradientUnits="userSpaceOnUse">
<stop stop-color="#988AF3"/>
<stop offset="1" stop-color="#56C9C9"/>
</linearGradient>
<linearGradient id="paint1_linear_3135_1159" x1="6.66669" y1="7.49996" x2="18.3334" y2="7.49996" gradientUnits="userSpaceOnUse">
<stop stop-color="#988AF3"/>
<stop offset="1" stop-color="#56C9C9"/>
</linearGradient>
</defs>
</svg>
